<svg xmlns="http://www.w3.org/2000/svg" width="375.612" height="55.885" viewBox="0 0 375.612 55.885"><g transform="translate(-717.938 14.812)"><path d="M776.856-2.406a5,5,0,0,0-1.971-4.637c-1.8-1.274-4.38-1.139-6.458-.71.019-.478.03-.96.03-1.447,0-2.159-2.495-3.491-8.345-4.455a124.129,124.129,0,0,0-33.831,0c-5.849.964-8.344,2.3-8.344,4.455,0,16.025,10.623,27.656,25.259,27.656a24.059,24.059,0,0,0,19.616-9.628C766.086,8.329,776.463,6.08,776.856-2.406ZM743.2-11.339c11.1,0,18.086,1.186,20.8,2.14a30.436,30.436,0,0,1-5.121,1.136A89.175,89.175,0,0,0,743.2-9.2a116.005,116.005,0,0,0-16.5,1,27.646,27.646,0,0,1-4.3-1C725.112-10.153,732.1-11.339,743.2-11.339Zm0,26.323c-11.787,0-20.3-8.4-21.606-20.811a30.884,30.884,0,0,0,4.69,1.083A109.5,109.5,0,0,0,743.2-3.587a109.5,109.5,0,0,0,16.915-1.158A30.877,30.877,0,0,0,764.8-5.828C763.5,6.583,754.984,14.984,743.2,14.984Zm30.189-17.55c-.2,4.244-4.65,6.318-8.044,7.285a29.66,29.66,0,0,0,2.731-8.8c1.8-.5,3.906-.755,4.81-.119C773.022-4.107,773.444-3.809,773.386-2.566Z" transform="translate(0)" fill="#2d1a10"/><g transform="translate(786.761 -13.325)"><path d="M799.482-13.05h15.532c3.611,0,5.358,1.708,5.358,5.358V8.772c0,3.611-1.747,5.358-5.358,5.358H799.482ZM813.189,8.539c.544,0,.738-.195.738-.738V-6.721c0-.583-.194-.738-.738-.738h-7.261v16Z" transform="translate(-799.482 13.05)" fill="#2d1a10"/><path d="M830.072-13.05h18.716v5.591H836.518v4.931h9.823V2.986h-9.823V8.539h12.269v5.591H830.072Z" transform="translate(-804.254 13.05)" fill="#2d1a10"/><path d="M878.914,14.129H872.2l-4.543-9.357h-3.766v9.357h-6.446V-13.05h15.144c3.611,0,5.358,1.708,5.358,5.358V-.9c0,3.068-1.2,4.737-3.727,5.2ZM870.76-.587c.543,0,.738-.155.738-.738V-6.837c0-.582-.195-.738-.738-.738h-6.873V-.587Z" transform="translate(-808.524 13.05)" fill="#2d1a10"/><path d="M887.479-13.05h14.989c3.612,0,5.359,1.708,5.359,5.358v3.34c0,2.329-.621,3.844-2.8,4.582,2.369.544,3.107,2.446,3.107,4.581V8.772c0,3.611-1.747,5.358-5.359,5.358h-15.3ZM900.642-2.295c.544,0,.739-.194.739-.738V-6.955c0-.582-.194-.738-.739-.738h-6.716v5.4Zm.311,11.067c.544,0,.738-.194.738-.738V3.491c0-.582-.193-.738-.738-.738h-7.027V8.772Z" transform="translate(-813.21 13.05)" fill="#2d1a10"/><path d="M922.244,5.277,913.469-13.05h6.989l5.047,11.8,5.009-11.8h6.912L928.69,5.277v8.853h-6.446Z" transform="translate(-817.264 13.05)" fill="#2d1a10"/><path d="M954.961,8.772V-7.692c0-3.649,1.786-5.358,5.4-5.358h9.708c3.611,0,5.32,1.708,5.32,5.358v4.737h-6.446V-6.721c0-.583-.194-.738-.738-.738h-6.057c-.544,0-.738.155-.738.738V7.8c0,.544.194.738.738.738H968.2c.544,0,.738-.195.738-.738V4h6.446V8.772c0,3.611-1.747,5.358-5.358,5.358H960.32C956.708,14.129,954.961,12.382,954.961,8.772Z" transform="translate(-823.737 13.05)" fill="#2d1a10"/><path d="M984.264-13.05h6.445V14.129h-6.445Z" transform="translate(-828.308 13.05)" fill="#2d1a10"/><path d="M1003.2-7.42h-7.067v-5.63h20.618v5.63h-7.106V14.129H1003.2Z" transform="translate(-830.159 13.05)" fill="#2d1a10"/><path d="M1030.666,5.277l-8.775-18.327h6.989l5.047,11.8,5.009-11.8h6.911l-8.736,18.327v8.853h-6.446Z" transform="translate(-834.178 13.05)" fill="#2d1a10"/><path d="M1063.981-13.05h15.531c3.611,0,5.358,1.708,5.358,5.358V8.772c0,3.611-1.746,5.358-5.358,5.358h-15.531Zm13.707,21.589c.544,0,.738-.195.738-.738V-6.721c0-.583-.194-.738-.738-.738h-7.261v16Z" transform="translate(-840.744 13.05)" fill="#2d1a10"/><path d="M1116.043,14.129h-6.717l-4.543-9.357h-3.766v9.357h-6.446V-13.05h15.143c3.611,0,5.358,1.708,5.358,5.358V-.9c0,3.068-1.2,4.737-3.727,5.2ZM1107.889-.587c.544,0,.738-.155.738-.738V-6.837c0-.582-.194-.738-.738-.738h-6.873V-.587Z" transform="translate(-845.516 13.05)" fill="#2d1a10"/><path d="M1124.609-13.05h6.446V14.129h-6.446Z" transform="translate(-850.202 13.05)" fill="#2d1a10"/><path d="M1138.686-13.05h15.142c3.611,0,5.359,1.708,5.359,5.358V0c0,3.65-1.748,5.359-5.359,5.359h-8.7v8.775h-6.445ZM1152-.2c.544,0,.738-.155.738-.738V-6.761c0-.582-.194-.738-.738-.738h-6.873V-.2Z" transform="translate(-852.398 13.05)" fill="#2d1a10"/></g><g transform="translate(796.573 18.083)"><path d="M815.843,28.426a2.4,2.4,0,0,1-.167.464c-1.115,2.822-2.581,5.274-2.972,7.967a7,7,0,0,0-.074,1.021c0,.223.037.279.093.279a1.1,1.1,0,0,0,.725-.371,44.335,44.335,0,0,0,6.37-7.8c.2-.334.111-.316.446-.854.111-.186.445-.538.538-.538a3.356,3.356,0,0,0,.613.074c.074,0,.149.074.2.167l.26.408a.61.61,0,0,1,.111.26,1.3,1.3,0,0,1-.13.408c-.3.78-.854,1.5-1.152,2.284a20.625,20.625,0,0,0-1.337,7.373c0,.408.019.5.019.557,0,.13-.112.186-.261.186-.278,0-.222-.074-.427-.13a2.926,2.926,0,0,1-.65-.353c-.149-.093-.334-.111-.334-.353a.8.8,0,0,1,.093-.39.617.617,0,0,0,.093-.3,29.574,29.574,0,0,1,.446-3.639,1.283,1.283,0,0,0,.056-.3.087.087,0,0,0-.092-.093.268.268,0,0,0-.149.093,48.926,48.926,0,0,1-4.327,4.606,1.472,1.472,0,0,1-.855.3,1.278,1.278,0,0,1-.76-.279c-.354-.353-.781-.131-1.022-.594a4.9,4.9,0,0,1-.093-1.171,9.97,9.97,0,0,1,.5-2.934c.688-2.172,1.652-4.271,2.433-6.425a2.784,2.784,0,0,1,.2-.408c.13-.241.279-.5.557-.5.094,0,.149.075.521.224a.746.746,0,0,1,.426.279A1.373,1.373,0,0,1,815.843,28.426Z" transform="translate(-811.107 -24.674)" fill="#b98757"/><path d="M829.184,32.639a2.453,2.453,0,0,1-.539,1.542c-.149.186-.167.2-.26.2a1.253,1.253,0,0,1-.65-.241.707.707,0,0,1-.278-.6.3.3,0,0,1,.056-.148,1.664,1.664,0,0,0,.316-.855,1.182,1.182,0,0,0-.13-.5.551.551,0,0,0-.409-.26,3.772,3.772,0,0,0-1.133,1.913,2.89,2.89,0,0,0-.037.483c0,.111.092.947.13,1.188.166,1.393.593,3.472.593,4.234a.475.475,0,0,1-.148.334,1.692,1.692,0,0,1-1.17.668,1.509,1.509,0,0,1-.464-.074,5.8,5.8,0,0,1-2.712-2.489.783.783,0,0,1-.111-.279.734.734,0,0,1,.669-.687c.371,0,.538.037.706.26a10.415,10.415,0,0,0,1.208,1.783c.186.166.279.2.371.2a.171.171,0,0,0,.186-.149,2.85,2.85,0,0,0-.093-.576c-.261-1.225-.594-4.011-.594-4.383a5.041,5.041,0,0,1,.668-2.265,2.346,2.346,0,0,1,1.653-1.188,2.14,2.14,0,0,1,1.82.668A1.965,1.965,0,0,1,829.184,32.639Z" transform="translate(-812.844 -25.193)" fill="#b98757"/><path d="M833.514,38.718a3,3,0,0,1-1.913.891c-.557,0-1.188-.781-1.392-1.468a2.8,2.8,0,0,1-.093-.78,4.2,4.2,0,0,1,.3-1.5c.13-.353.2-.668.316-.928.576-1.355,1.114-2.693,1.8-4.123a.955.955,0,0,1,.928-.5.927.927,0,0,1,.557.149.315.315,0,0,1,.149.3c0,.984-.761,1.448-1.188,2.359-.317.687-.836,1.95-1.1,2.637a6.346,6.346,0,0,0-.446,1.82c0,.168.019.594.334.594.409,0,.613-.111,1.356-.631.445-.316.575-.408.873-.408a.8.8,0,0,1,.464.13.292.292,0,0,1,.111.26c0,.205-.111.316-.3.5Zm2.581-11.588a.54.54,0,0,1-.093.334c-.334.408-.78.91-1.188.91a.87.87,0,0,1-.743-.371,1.472,1.472,0,0,1-.131-.631,1.294,1.294,0,0,1,.242-.781,1.156,1.156,0,0,1,.91-.316,1.18,1.18,0,0,1,.78.242A.865.865,0,0,1,836.095,27.13Z" transform="translate(-814.072 -24.492)" fill="#b98757"/><path d="M837.361,31.754c.149-.223.131-.26.3-.408a.971.971,0,0,1,.65-.186c.427,0,.668.111.743.279a1.128,1.128,0,0,1,.094.334,1.338,1.338,0,0,1-.409.873,8.64,8.64,0,0,0-1.188,1.672,28.763,28.763,0,0,0-1.318,2.9,12.16,12.16,0,0,0-.371,1.3c0,.073,0,.185.056.185.111,0,.186-.056.316-.241,2.507-3.565,3.881-4.308,4.29-5.181.334-.7.409-.761.65-.761.279,0,.371.167.668.186a.507.507,0,0,1,.371.5,1.465,1.465,0,0,1-.186.482,10.67,10.67,0,0,0-1.3,2.749,8.606,8.606,0,0,0-.223,1.671,3.413,3.413,0,0,0,.148.8c.055.334.52.576.65.668a.558.558,0,0,1,.278.428.48.48,0,0,1-.482.446,1.886,1.886,0,0,1-.965-.26,3.919,3.919,0,0,1-.725-.651,1.878,1.878,0,0,1-.316-1.151,4.513,4.513,0,0,1,.167-1.467c0-.037-.018-.074-.056-.074s-.055,0-.111.074c-.761,1-1.263,1.634-1.708,2.266a4.145,4.145,0,0,1-.8.817,1.064,1.064,0,0,1-.687.2,3.512,3.512,0,0,1-1.337-.854,1.043,1.043,0,0,1-.13-.538,4.939,4.939,0,0,1,.222-1.115,14.594,14.594,0,0,1,.911-2.525A20.222,20.222,0,0,1,837.361,31.754Z" transform="translate(-814.745 -25.255)" fill="#b98757"/><path d="M848.888,38.138c0,.056.019.075.074.075a21.566,21.566,0,0,1,3.1-2.192c.316-.186.353-.186.446-.186a.743.743,0,0,1,.483.186.409.409,0,0,1,.111.279.386.386,0,0,1-.148.316c-3.436,2.582-5.256,4.253-6.2,6.5-.631,1.523-1.319,3.12-1.542,3.529a1.163,1.163,0,0,1-1.337.78c-.352,0-.873-.186-.966-.538a1.549,1.549,0,0,1-.055-.408c0-.464.333-1.077,1.263-2.508,1.411-2.172,1.653-1.671,3.676-6.351v-.037a.04.04,0,0,0-.037-.037.068.068,0,0,0-.056.019c-.836.8-1.634,1.69-2.562,1.69a1.427,1.427,0,0,1-.558-.111,4.016,4.016,0,0,1-1.114-.855c-.092-.093-.13-.149-.13-.538a3.72,3.72,0,0,1,.539-1.727,15.4,15.4,0,0,1,1.82-2.415c1.95-2.191,3.472-2.358,3.547-2.358a2.357,2.357,0,0,1,1.912.8.994.994,0,0,1,.205.65,1.385,1.385,0,0,1-.148.724C849.278,36.875,848.888,37.933,848.888,38.138Zm1.188-5.4c0-.037-.037-.074-.037-.111,0-.055,0-.111-.186-.186a.867.867,0,0,0-.316-.056,1.4,1.4,0,0,0-.854.39c-.371.3-.519.316-.78.557a14.9,14.9,0,0,0-2.841,3.584,2.9,2.9,0,0,0-.224.706c0,.074.149.149.224.149a.637.637,0,0,0,.37-.093,17.724,17.724,0,0,0,4.588-4.809A.249.249,0,0,0,850.076,32.733Z" transform="translate(-816.059 -25.268)" fill="#b98757"/><path d="M867.753,31.688a4.326,4.326,0,0,1-.186,1.338,15.373,15.373,0,0,1-2.47,5.887,3.268,3.268,0,0,1-2.582,1.132,3.454,3.454,0,0,1-1.114-.166,2.547,2.547,0,0,1-1.058-.891,3.329,3.329,0,0,1-.594-2.118A10.981,10.981,0,0,1,862,30.352a7.289,7.289,0,0,1,2.172-2.265.947.947,0,0,1,.484-.2,1.045,1.045,0,0,1,.408.111,3.837,3.837,0,0,0,.966.3.56.56,0,0,1,.408.149A4.185,4.185,0,0,1,867.753,31.688Zm-2.692-2.414c-.056,0-.241.019-.761.557a11.708,11.708,0,0,0-2.73,4.587,3.455,3.455,0,0,0-.223,1.151c0,.13-.093.873-.093,1.281a2.441,2.441,0,0,0,.631,1.783,1.22,1.22,0,0,0,.613.166,1.68,1.68,0,0,0,1.281-.687,14.647,14.647,0,0,0,2.321-6.7,4.813,4.813,0,0,0-.018-.613,1.331,1.331,0,0,0-.78-1.188.145.145,0,0,1-.112-.149C865.189,29.349,865.115,29.275,865.06,29.275Z" transform="translate(-818.695 -24.743)" fill="#b98757"/><path d="M872.187,31.754c.148-.223.13-.26.3-.408a.973.973,0,0,1,.651-.186c.426,0,.668.111.742.279a1.129,1.129,0,0,1,.094.334,1.339,1.339,0,0,1-.409.873,8.637,8.637,0,0,0-1.188,1.672,28.991,28.991,0,0,0-1.318,2.9,12.171,12.171,0,0,0-.371,1.3c0,.073,0,.185.056.185.112,0,.186-.056.316-.241,2.507-3.565,3.881-4.308,4.29-5.181.334-.7.408-.761.65-.761.279,0,.371.167.668.186a.508.508,0,0,1,.372.5,1.467,1.467,0,0,1-.187.482,10.676,10.676,0,0,0-1.3,2.749,8.6,8.6,0,0,0-.223,1.671,3.406,3.406,0,0,0,.148.8c.056.334.52.576.65.668A.558.558,0,0,1,876.4,40a.48.48,0,0,1-.483.446,1.891,1.891,0,0,1-.966-.26,3.95,3.95,0,0,1-.725-.651,1.879,1.879,0,0,1-.316-1.151,4.49,4.49,0,0,1,.168-1.467c0-.037-.018-.074-.057-.074s-.055,0-.111.074c-.76,1-1.263,1.634-1.708,2.266a4.169,4.169,0,0,1-.8.817,1.068,1.068,0,0,1-.688.2,3.519,3.519,0,0,1-1.337-.854,1.043,1.043,0,0,1-.13-.538,4.89,4.89,0,0,1,.223-1.115,14.579,14.579,0,0,1,.91-2.525A20.109,20.109,0,0,1,872.187,31.754Z" transform="translate(-820.178 -25.255)" fill="#b98757"/><path d="M878.724,38.16a3.463,3.463,0,0,1-.056-.631,8.24,8.24,0,0,1,.8-2.767,60.333,60.333,0,0,1,3.863-7.465c.316-.538.427-1.579,1.151-1.579.26,0,.408-.037.613-.037a.621.621,0,0,1,.484.2.9.9,0,0,1,.148.521,1.276,1.276,0,0,1-.185.65c-1.69,2.729-3.64,5.218-4.737,8.115a6.416,6.416,0,0,0-.706,2.284,2.26,2.26,0,0,0,.094.687.347.347,0,0,0,.37.223.606.606,0,0,0,.316-.073c.818-.5,1.728-2.08,2.582-2.08.149,0,.631.13.631.427,0,.241-.186.316-.371.52-.947,1.021-1.708,2.433-3.138,2.433C880.451,39.591,878.909,39.182,878.724,38.16Z" transform="translate(-821.647 -24.4)" fill="#b98757"/><path d="M887.416,32.331c-.316.558-.354.427-.483.706a29.176,29.176,0,0,0-1.3,3.789,3.876,3.876,0,0,0-.149.594,3.559,3.559,0,0,0-.092.594c0,.168.037.3.092.3a.841.841,0,0,0,.408-.111,4.7,4.7,0,0,0,1.468-1.225c.148-.167.39-.371.687-.743a9.241,9.241,0,0,0,2.377-3.659c.056-.149.316-.557.483-.557.2,0,.279.13.576.13.613,0,.65.409.65.668a1.821,1.821,0,0,1-.427.948l-.353.557a10.553,10.553,0,0,0-1.133,2.4c-.148.446-.891,2.359-1.021,2.786a4.951,4.951,0,0,0-.223.743c0,.037.037.037.074.037s.111-.019.167-.019c.111,0,.334.074.334.2a.7.7,0,0,1-.112.464,12.809,12.809,0,0,0-2.247,5.236c-.148.725-.167,1.858-1.151,1.988a2.9,2.9,0,0,1-.5.074c-.279,0-.706-.037-.706-.706a4.1,4.1,0,0,1,.39-1.467,26.766,26.766,0,0,1,1.6-3.176c.037-.334.612-2.21,1.113-3.732a6.6,6.6,0,0,0,.335-1.171c0-.037-.019-.074-.057-.074s-.111.056-.259.2a7.451,7.451,0,0,1-2.042,1.43,2.124,2.124,0,0,1-1.765-.742c-.093-.112-.111-.149-.111-.446,0-2.562,1.188-4.346,1.913-6.76a.825.825,0,0,1,.649-.538c.094,0,.335.093.52.093s.484.167.484.408A1.39,1.39,0,0,1,887.416,32.331Z" transform="translate(-822.484 -25.237)" fill="#b98757"/><path d="M902.864,31.634a8.239,8.239,0,0,0-.427,1.151c0,.038.037.057.074.057a4.464,4.464,0,0,0,.464-.075,8.969,8.969,0,0,0,2.488-.928.575.575,0,0,1,.2-.093c.316,0,.91.26.91.484a.864.864,0,0,1-.612.706c-.5.2-.5.26-.836.389-.91.353-2.489.706-2.879.836a.6.6,0,0,0-.353.279,3.924,3.924,0,0,0-.316.891c-.055.2-.167.39-.2.594-.111.613-.743,2.191-.854,3.12a1.249,1.249,0,0,1-.464.78.744.744,0,0,1-.278.056,1.291,1.291,0,0,1-.668-.2.536.536,0,0,1-.2-.446,2.014,2.014,0,0,1,.074-.558c.464-1.374.8-2.989,1.393-4.419a.471.471,0,0,0,.037-.13c0-.037-.019-.074-.093-.111-.668-.335-.78-.817-1.207-1.17a.258.258,0,0,1-.093-.223c0-.131.074-.168.223-.242a.732.732,0,0,1,.371-.092c.409,0,.873.3,1.207.3a.3.3,0,0,0,.316-.261c.056-.2.149-.483.3-.873.446-1.133.947-2.581,1.579-3.936.111-.241.13-.241.2-.241.3,0,.333-.093.52-.093a2.186,2.186,0,0,1,.706.149c.093.036.167.073.167.129a1.1,1.1,0,0,1-.019.205A15.841,15.841,0,0,1,902.864,31.634Z" transform="translate(-824.804 -24.633)" fill="#b98757"/><path d="M910.131,39.651a1.471,1.471,0,0,1-.539-.13,1.636,1.636,0,0,1-1-1.764,7.472,7.472,0,0,1,.353-2.08,17.8,17.8,0,0,1,.687-1.912.674.674,0,0,0,.074-.223.039.039,0,0,0-.037-.038c-.037,0-.111.057-.241.205-1.263,1.448-2.545,3.6-3.64,4.884a.6.6,0,0,1-.2.185,1.444,1.444,0,0,1-.706.242,2.354,2.354,0,0,1-.965-.521.307.307,0,0,1-.074-.2c0-.2.093-.186.167-.5a40.568,40.568,0,0,1,3.509-8.282c.781-1.56,1.82-3.269,2.73-5.088a.476.476,0,0,1,.483-.26c.186,0,.3.037.39.037a.852.852,0,0,1,.52.279.533.533,0,0,1,.167.464c0,.483-.39.78-.873,1.374-.167.205-.2.3-.353.5-1.671,2.3-3.139,6.09-4.531,9.043a2.452,2.452,0,0,0-.166.371c0,.019,0,.037.037.037.018,0,.037-.019.129-.149a52.064,52.064,0,0,1,4.216-5.163c.26-.279.353-.371.52-.427a1.627,1.627,0,0,1,.427-.093,2.667,2.667,0,0,1,.688.13.484.484,0,0,1,.279.353,2.851,2.851,0,0,1-.557,1.486,7.453,7.453,0,0,0-.484,1.133,11.156,11.156,0,0,0-.966,3.974c0,.892.187,1.078.465,1.226a2.915,2.915,0,0,0,.463.111.178.178,0,0,1,.131.149.81.81,0,0,1-.094.241.562.562,0,0,1-.353.26A2.544,2.544,0,0,1,910.131,39.651Z" transform="translate(-825.573 -24.163)" fill="#b98757"/><path d="M916.782,40.233a1.774,1.774,0,0,1-.706-.131,12.247,12.247,0,0,1-1.188-.519,2.264,2.264,0,0,1-.928-1.282,5.58,5.58,0,0,1-.224-1.43,2.136,2.136,0,0,1,.094-.613,12.5,12.5,0,0,1,3.194-5.033,2.919,2.919,0,0,1,3.12-.631,1.157,1.157,0,0,1,.594,1.151,2.976,2.976,0,0,1-.427,1.338,3.573,3.573,0,0,1-.594.873,18.243,18.243,0,0,1-4.308,3.936c-.094.056-.111.093-.111.149a1.129,1.129,0,0,0,.446.78,1.156,1.156,0,0,0,.576.149,2.94,2.94,0,0,0,1.43-.521c1.282-.687,2.062-1.69,3.176-2.4a.6.6,0,0,1,.37-.13c.112,0,.372.186.372.371a1.932,1.932,0,0,1-.019.241.307.307,0,0,1-.092.26,14.782,14.782,0,0,1-4.1,3.25A1.048,1.048,0,0,1,916.782,40.233Zm2.4-8.487c0-.149,0-.223-.111-.223a.74.74,0,0,0-.391.167,1.611,1.611,0,0,0-.371.241,9.2,9.2,0,0,0-2.916,4.253c0,.074.019.093.037.093a.247.247,0,0,0,.131-.056,17.984,17.984,0,0,0,2.842-2.859c.278-.334.2-.391.445-.762A1.483,1.483,0,0,0,919.178,31.745Z" transform="translate(-827.117 -25.134)" fill="#b98757"/><path d="M938.278,28.5c0,.223,0,.241-.112.3a1.523,1.523,0,0,1-.78.2c-.167,0-.2-.408-.873-.408a10.02,10.02,0,0,0-1.225.223c-.78.093-1.485.371-2.192.52a.274.274,0,0,0-.2.3.663.663,0,0,1-.038.279,15.759,15.759,0,0,0-1.448,3.232c0,.074.037.093.13.093,1-.241,1.988-.409,3.139-.631a1.839,1.839,0,0,1,.353-.056,1.162,1.162,0,0,1,.334.111c.668.279.742.408.742.686,0,.205-.11.242-.2.261-1.6.316-3.249.613-4.828,1-.149.037-.167.056-.223.186-.39.78-.464,1.69-.8,2.451a1.483,1.483,0,0,0-.13.372,6.629,6.629,0,0,0-.167,1.281c0,.371.037.334.037.5a.26.26,0,0,1-.261.259,2.36,2.36,0,0,1-1.225-.334.2.2,0,0,1-.129-.222,13.87,13.87,0,0,1,.76-3.584.652.652,0,0,0,.037-.223c0-.093-.111-.186-.279-.186a.6.6,0,0,1-.612-.557c0-.056-.111-.2-.111-.316,0-.056.018-.074.111-.111a10.906,10.906,0,0,1,1.225-.316.241.241,0,0,0,.185-.167c.465-1.1.929-2.34,1.375-3.4,0-.093-.019-.093-.075-.093-.185,0-1.485.706-1.763.706a.978.978,0,0,1-.725-.631c0-.241.187-.408.261-.613.037-.093.055-.111.129-.13a17.629,17.629,0,0,0,2.879-.984,4.735,4.735,0,0,1,.538-.186,19.877,19.877,0,0,1,4.42-.892,1.858,1.858,0,0,1,1.671.688A.768.768,0,0,1,938.278,28.5Z" transform="translate(-829.338 -24.671)" fill="#b98757"/><path d="M940.433,38.718a3,3,0,0,1-1.913.891c-.557,0-1.188-.781-1.393-1.468a2.8,2.8,0,0,1-.093-.78,4.2,4.2,0,0,1,.3-1.5c.13-.353.2-.668.316-.928.576-1.355,1.114-2.693,1.8-4.123a.955.955,0,0,1,.928-.5.927.927,0,0,1,.557.149.315.315,0,0,1,.148.3c0,.984-.76,1.448-1.188,2.359-.316.687-.835,1.95-1.1,2.637a6.349,6.349,0,0,0-.446,1.82c0,.168.019.594.334.594.409,0,.614-.111,1.356-.631.446-.316.575-.408.873-.408a.8.8,0,0,1,.464.13.294.294,0,0,1,.111.26c0,.205-.111.316-.3.5Zm2.581-11.588a.54.54,0,0,1-.093.334c-.334.408-.78.91-1.188.91A.869.869,0,0,1,940.99,28a1.47,1.47,0,0,1-.131-.631,1.293,1.293,0,0,1,.242-.781,1.156,1.156,0,0,1,.91-.316,1.176,1.176,0,0,1,.779.242A.863.863,0,0,1,943.014,27.13Z" transform="translate(-830.752 -24.492)" fill="#b98757"/><path d="M944.28,31.754c.149-.223.131-.26.3-.408a.97.97,0,0,1,.65-.186c.427,0,.669.111.743.279a1.127,1.127,0,0,1,.094.334,1.339,1.339,0,0,1-.409.873,8.64,8.64,0,0,0-1.188,1.672,28.883,28.883,0,0,0-1.319,2.9,12.317,12.317,0,0,0-.37,1.3c0,.073,0,.185.055.185.112,0,.187-.056.316-.241,2.508-3.565,3.882-4.308,4.29-5.181.335-.7.409-.761.651-.761.278,0,.37.167.668.186a.507.507,0,0,1,.371.5,1.464,1.464,0,0,1-.186.482,10.669,10.669,0,0,0-1.3,2.749,8.6,8.6,0,0,0-.223,1.671,3.409,3.409,0,0,0,.149.8c.056.334.52.576.649.668a.556.556,0,0,1,.279.428.48.48,0,0,1-.482.446,1.887,1.887,0,0,1-.965-.26,3.922,3.922,0,0,1-.725-.651,1.878,1.878,0,0,1-.316-1.151,4.511,4.511,0,0,1,.167-1.467c0-.037-.018-.074-.056-.074s-.055,0-.111.074c-.76,1-1.263,1.634-1.708,2.266a4.147,4.147,0,0,1-.8.817,1.064,1.064,0,0,1-.687.2,3.512,3.512,0,0,1-1.337-.854,1.043,1.043,0,0,1-.13-.538,4.943,4.943,0,0,1,.222-1.115,14.571,14.571,0,0,1,.91-2.525A20.218,20.218,0,0,1,944.28,31.754Z" transform="translate(-831.424 -25.255)" fill="#b98757"/><path d="M954.137,40.233a1.779,1.779,0,0,1-.706-.131,12.344,12.344,0,0,1-1.188-.519,2.272,2.272,0,0,1-.928-1.282,5.578,5.578,0,0,1-.223-1.43,2.129,2.129,0,0,1,.093-.613,12.5,12.5,0,0,1,3.194-5.033,2.921,2.921,0,0,1,3.12-.631,1.157,1.157,0,0,1,.594,1.151,2.974,2.974,0,0,1-.427,1.338,3.614,3.614,0,0,1-.594.873,18.264,18.264,0,0,1-4.309,3.936c-.093.056-.111.093-.111.149a1.13,1.13,0,0,0,.447.78,1.155,1.155,0,0,0,.575.149,2.945,2.945,0,0,0,1.43-.521c1.281-.687,2.061-1.69,3.175-2.4a.6.6,0,0,1,.371-.13c.112,0,.371.186.371.371a2.013,2.013,0,0,1-.019.241.305.305,0,0,1-.093.26,14.754,14.754,0,0,1-4.1,3.25A1.047,1.047,0,0,1,954.137,40.233Zm2.4-8.487c0-.149,0-.223-.111-.223a.743.743,0,0,0-.391.167,1.607,1.607,0,0,0-.37.241,9.189,9.189,0,0,0-2.916,4.253c0,.074.019.093.037.093a.242.242,0,0,0,.13-.056,17.946,17.946,0,0,0,2.842-2.859c.278-.334.2-.391.446-.762A1.488,1.488,0,0,0,956.533,31.745Z" transform="translate(-832.945 -25.134)" fill="#b98757"/><path d="M965.406,32.639a2.458,2.458,0,0,1-.538,1.542c-.149.186-.168.2-.26.2a1.252,1.252,0,0,1-.65-.241.7.7,0,0,1-.279-.6.3.3,0,0,1,.056-.148,1.67,1.67,0,0,0,.316-.855,1.181,1.181,0,0,0-.13-.5.55.55,0,0,0-.409-.26A3.781,3.781,0,0,0,962.38,33.7a3,3,0,0,0-.036.483c0,.111.092.947.13,1.188.166,1.393.593,3.472.593,4.234a.472.472,0,0,1-.148.334,1.69,1.69,0,0,1-1.17.668,1.5,1.5,0,0,1-.463-.074,5.8,5.8,0,0,1-2.712-2.489.768.768,0,0,1-.111-.279.734.734,0,0,1,.668-.687c.37,0,.539.037.706.26a10.363,10.363,0,0,0,1.208,1.783c.185.166.279.2.37.2a.171.171,0,0,0,.187-.149,2.82,2.82,0,0,0-.094-.576c-.26-1.225-.594-4.011-.594-4.383a5.053,5.053,0,0,1,.668-2.265,2.348,2.348,0,0,1,1.653-1.188,2.139,2.139,0,0,1,1.82.668A1.958,1.958,0,0,1,965.406,32.639Z" transform="translate(-834.094 -25.193)" fill="#b98757"/><path d="M970.074,31.634a8.247,8.247,0,0,0-.427,1.151c0,.038.037.057.074.057a4.467,4.467,0,0,0,.464-.075,8.97,8.97,0,0,0,2.488-.928.576.576,0,0,1,.2-.093c.316,0,.91.26.91.484a.864.864,0,0,1-.613.706c-.5.2-.5.26-.836.389-.91.353-2.489.706-2.879.836a.6.6,0,0,0-.353.279,3.927,3.927,0,0,0-.316.891c-.055.2-.167.39-.2.594-.111.613-.743,2.191-.854,3.12a1.249,1.249,0,0,1-.464.78.742.742,0,0,1-.279.056,1.292,1.292,0,0,1-.669-.2.536.536,0,0,1-.2-.446,2.014,2.014,0,0,1,.074-.558c.464-1.374.8-2.989,1.393-4.419a.475.475,0,0,0,.037-.13c0-.037-.019-.074-.093-.111-.668-.335-.78-.817-1.207-1.17a.258.258,0,0,1-.093-.223c0-.131.074-.168.223-.242a.732.732,0,0,1,.371-.092c.409,0,.873.3,1.207.3a.3.3,0,0,0,.316-.261c.056-.2.149-.483.3-.873.447-1.133.947-2.581,1.578-3.936.111-.241.131-.241.205-.241.3,0,.334-.093.52-.093a2.186,2.186,0,0,1,.706.149c.093.036.167.073.167.129a1.1,1.1,0,0,1-.019.205A15.841,15.841,0,0,1,970.074,31.634Z" transform="translate(-835.289 -24.633)" fill="#b98757"/><path d="M983.593,28.778c0,.056-.019.093-.111.167a3.811,3.811,0,0,0-.948,1.578c-.149.371-.278.557-.5,1.04-.927,2.025-1.763,4.142-2.525,6.352a1.111,1.111,0,0,0-.074.389c0,.168.111.353.279.353a3.665,3.665,0,0,0,.78-.148,30.349,30.349,0,0,0,3.733-1.282.871.871,0,0,1,.334-.037,1.823,1.823,0,0,1,1,.483.344.344,0,0,1,.13.224c0,.073.111.129.111.316a.475.475,0,0,1-.056.26c-.074.111-.223.185-.78.185a1.084,1.084,0,0,0-.353.037c-1.894.465-3.435,1.412-5.46,1.412-.724,0-1.225-.668-1.523-1.078a.391.391,0,0,1-.074-.259,3.146,3.146,0,0,1,.316-1.041c.111-.279,0-.279.241-.984,1.1-3.212,2.712-6.277,4.1-9.341.093-.2.465-.2.577-.2.167,0,.148.148.52.241.223.057.538.241.538.391C983.853,28.314,983.593,28.518,983.593,28.778Z" transform="translate(-837.073 -24.637)" fill="#b98757"/><path d="M993.506,32.542c.743,0,1.17-.055,1.6-.055.594,0,1.15.185,1.15.482,0,.241-.464.3-.519.39-.037.075-.075.094-.2.112-.372.056-.91.241-1.393.316a4.454,4.454,0,0,1-.724.056c-.149,0-.186.019-.223.149a10.8,10.8,0,0,1-2.34,4.976c-.52.557-1.021,1.1-1.672,1.1a1.055,1.055,0,0,1-.446-.093,2.67,2.67,0,0,1-1.393-1.17,4.313,4.313,0,0,1-.279-1.542,7.612,7.612,0,0,1,1.616-4.141,6.991,6.991,0,0,1,.445-.558c.594-.836,1.375-1.708,2.192-1.708a1.463,1.463,0,0,1,.984.353c.149.13.2.167.26.316C992.726,31.985,992.967,32.542,993.506,32.542Zm-2.043-.074c-.055-.186-.111-.316-.185-.316a.456.456,0,0,0-.279.186c-.074.093-.26.187-.353.316-.576.724-2.321,3.027-2.321,5.2a.587.587,0,0,0,.055.26,1.728,1.728,0,0,0,.446.613.273.273,0,0,0,.168.038.629.629,0,0,0,.353-.149c.13-.056.167-.111.316-.334,1.077-1.615,2.079-3.064,2.079-4.94a3,3,0,0,0-.018-.39.278.278,0,0,0-.111-.2A.6.6,0,0,1,991.463,32.467Z" transform="translate(-838.556 -25.206)" fill="#b98757"/><path d="M1001.569,36.592c.26,0,.613.427.613.483,0,.074-.074.111-.074.186a.2.2,0,0,1-.149.223,9.694,9.694,0,0,0-2.042,1.412,5,5,0,0,1-2.749,1.373,2.463,2.463,0,0,1-1.875-.91,1.905,1.905,0,0,1-.224-.873,5.505,5.505,0,0,1,.3-1.393,3.715,3.715,0,0,1,.223-.724c.965-1.931,2.3-4.2,3.863-4.977a.5.5,0,0,1,.3-.056,2.965,2.965,0,0,1,1.931.78c.075.074.075.111.075.26a1.122,1.122,0,0,0,.037.279.42.42,0,0,1-.018.13,5.714,5.714,0,0,0-.631,1.746c0,.149-.111.279-.353.279a.57.57,0,0,1-.372-.13l-.482-.354a.487.487,0,0,1-.2-.408c0-.371.408-.818.408-1.115,0-.074-.055-.186-.149-.186-.111,0-.148.037-.3.186a14.688,14.688,0,0,0-2.266,2.99,8.133,8.133,0,0,0-1.077,2.841.347.347,0,0,0,.316.39,4.655,4.655,0,0,0,2.637-1.17A5.67,5.67,0,0,1,1001.569,36.592Z" transform="translate(-839.805 -25.282)" fill="#b98757"/><path d="M1011.4,32.379a.628.628,0,0,1,.521.241.157.157,0,0,1,.037.111.387.387,0,0,1-.074.2,12.13,12.13,0,0,0-2.155,3.937,6.871,6.871,0,0,0-.26,1.653,2.511,2.511,0,0,0,.39,1.392.256.256,0,0,1,.037.112c0,.037-.074.223-.39.26a2.389,2.389,0,0,1-.353.074.948.948,0,0,1-.8-.371,3.83,3.83,0,0,1-.316-1.6,6.076,6.076,0,0,1,.074-.928c0-.074,0-.093-.074-.093s-.241.13-.446.334l-1,.928a5.407,5.407,0,0,1-2.21,1.393,1.148,1.148,0,0,1-.3.074c-.2,0-.426-.13-1.3-.836a1.363,1.363,0,0,1-.408-1.1,4.964,4.964,0,0,1,1.114-2.748,10.257,10.257,0,0,1,2.674-2.786,9.259,9.259,0,0,1,2.972-1.467,1.546,1.546,0,0,1,.408-.056,1.6,1.6,0,0,1,1.133.538,1.3,1.3,0,0,1,.279.371A.519.519,0,0,0,1011.4,32.379Zm-2.21.074a13.412,13.412,0,0,0-4.179,3.232,5.716,5.716,0,0,0-1.392,2.581c0,.224.074.5.408.5a1.942,1.942,0,0,0,.91-.52c1.728-1.615,3.677-2.859,4.625-4.624a3.225,3.225,0,0,1,.538-.706.412.412,0,0,0,.094-.279.4.4,0,0,0-.428-.371A1.711,1.711,0,0,0,1009.188,32.453Z" transform="translate(-840.945 -25.248)" fill="#b98757"/><path d="M1013.231,38.16a3.468,3.468,0,0,1-.056-.631,8.241,8.241,0,0,1,.8-2.767,60.115,60.115,0,0,1,3.863-7.465c.316-.538.427-1.579,1.151-1.579.26,0,.409-.037.613-.037a.618.618,0,0,1,.483.2.891.891,0,0,1,.149.521,1.267,1.267,0,0,1-.186.65c-1.69,2.729-3.639,5.218-4.736,8.115a6.415,6.415,0,0,0-.706,2.284,2.289,2.289,0,0,0,.093.687.349.349,0,0,0,.371.223.605.605,0,0,0,.316-.073c.818-.5,1.728-2.08,2.582-2.08.148,0,.631.13.631.427,0,.241-.186.316-.371.52-.947,1.021-1.708,2.433-3.139,2.433C1014.958,39.591,1013.416,39.182,1013.231,38.16Z" transform="translate(-842.63 -24.4)" fill="#b98757"/><path d="M1018.335,38.16a3.456,3.456,0,0,1-.057-.631,8.224,8.224,0,0,1,.8-2.767,60.115,60.115,0,0,1,3.863-7.465c.316-.538.427-1.579,1.151-1.579.261,0,.409-.037.613-.037a.62.62,0,0,1,.483.2.891.891,0,0,1,.149.521,1.269,1.269,0,0,1-.186.65c-1.691,2.729-3.64,5.218-4.736,8.115a6.4,6.4,0,0,0-.706,2.284,2.262,2.262,0,0,0,.093.687.347.347,0,0,0,.37.223.606.606,0,0,0,.316-.073c.818-.5,1.728-2.08,2.582-2.08.148,0,.631.13.631.427,0,.241-.186.316-.371.52-.947,1.021-1.709,2.433-3.139,2.433C1020.061,39.591,1018.519,39.182,1018.335,38.16Z" transform="translate(-843.426 -24.4)" fill="#b98757"/><path d="M1027.026,32.331c-.316.558-.354.427-.483.706a29.3,29.3,0,0,0-1.3,3.789,3.862,3.862,0,0,0-.149.594,3.553,3.553,0,0,0-.092.594c0,.168.037.3.092.3a.847.847,0,0,0,.409-.111,4.7,4.7,0,0,0,1.467-1.225c.149-.167.39-.371.687-.743a9.247,9.247,0,0,0,2.378-3.659c.055-.149.316-.557.482-.557.2,0,.278.13.576.13.612,0,.65.409.65.668a1.816,1.816,0,0,1-.428.948l-.353.557a10.546,10.546,0,0,0-1.132,2.4c-.149.446-.892,2.359-1.021,2.786a4.882,4.882,0,0,0-.224.743c0,.037.037.037.074.037s.111-.019.167-.019c.111,0,.335.074.335.2a.7.7,0,0,1-.112.464,12.8,12.8,0,0,0-2.247,5.236c-.149.725-.168,1.858-1.152,1.988a2.886,2.886,0,0,1-.5.074c-.278,0-.705-.037-.705-.706a4.077,4.077,0,0,1,.39-1.467,26.744,26.744,0,0,1,1.6-3.176c.037-.334.613-2.21,1.114-3.732a6.514,6.514,0,0,0,.334-1.171c0-.037-.019-.074-.056-.074s-.111.056-.26.2a7.436,7.436,0,0,1-2.042,1.43,2.126,2.126,0,0,1-1.765-.742c-.093-.112-.111-.149-.111-.446,0-2.562,1.189-4.346,1.913-6.76a.825.825,0,0,1,.65-.538c.093,0,.334.093.52.093s.483.167.483.408A1.391,1.391,0,0,1,1027.026,32.331Z" transform="translate(-844.263 -25.237)" fill="#b98757"/><path d="M1046.443,29.975c.037.223.111.483.111.594,0,.13-.186.241-.39.241a1.246,1.246,0,0,1-.316-.056,1.869,1.869,0,0,1-.818-.65c-.2-.279-.149-1.077-.706-1.393a.749.749,0,0,0-.408-.111c-.13,0-.446.557-.446,1.467a8.061,8.061,0,0,0,.26,1.838c.279,1.188,1.077,3.752,1.319,5.218a6.645,6.645,0,0,1,.13,1.225A1.751,1.751,0,0,1,1044.029,40a2.129,2.129,0,0,1-.725.056,5.934,5.934,0,0,1-4.457-2.433,3.346,3.346,0,0,1-1.04-1.82,2.974,2.974,0,0,1-.036-.557c0-.167.222-.538.408-.538a2,2,0,0,1,.947.26,1.675,1.675,0,0,1,.65.65c0,.279-.13.334-.13.743a.867.867,0,0,0,.111.3,5.148,5.148,0,0,0,2.619,2.117,1.508,1.508,0,0,0,.483.075.69.69,0,0,0,.631-.688,11.038,11.038,0,0,0-.092-1.43c-.317-2.08-1.041-3.733-1.431-5.831a12.677,12.677,0,0,1-.167-1.43,2.5,2.5,0,0,1,.018-.408c.131-.613.205-1.691,1.171-1.691a3.5,3.5,0,0,1,2.786,1.078A3,3,0,0,1,1046.443,29.975Z" transform="translate(-846.467 -24.664)" fill="#b98757"/><path d="M1054.334,32.542c.743,0,1.17-.055,1.6-.055.594,0,1.151.185,1.151.482,0,.241-.464.3-.519.39-.037.075-.075.094-.2.112-.372.056-.91.241-1.394.316a4.451,4.451,0,0,1-.724.056c-.149,0-.186.019-.223.149a10.8,10.8,0,0,1-2.339,4.976c-.52.557-1.021,1.1-1.672,1.1a1.055,1.055,0,0,1-.446-.093,2.671,2.671,0,0,1-1.393-1.17,4.334,4.334,0,0,1-.278-1.542,7.61,7.61,0,0,1,1.615-4.141,7.064,7.064,0,0,1,.445-.558c.594-.836,1.375-1.708,2.192-1.708a1.463,1.463,0,0,1,.984.353c.148.13.2.167.26.316C1053.555,31.985,1053.8,32.542,1054.334,32.542Zm-2.043-.074c-.055-.186-.111-.316-.185-.316a.457.457,0,0,0-.279.186c-.074.093-.26.187-.353.316-.576.724-2.321,3.027-2.321,5.2a.587.587,0,0,0,.055.26,1.738,1.738,0,0,0,.446.613.273.273,0,0,0,.168.038.63.63,0,0,0,.353-.149c.13-.056.167-.111.316-.334,1.077-1.615,2.08-3.064,2.08-4.94a2.84,2.84,0,0,0-.019-.39.275.275,0,0,0-.111-.2A.6.6,0,0,1,1052.291,32.467Z" transform="translate(-848.045 -25.206)" fill="#b98757"/><path d="M1059.707,32.251a.7.7,0,0,1-.372.538,1.314,1.314,0,0,0-.538.873c-.427,1.653-1.208,3.473-1.394,4.829a2.37,2.37,0,0,0-.037.428.317.317,0,0,0,.26.26.932.932,0,0,0,.408-.187,7.882,7.882,0,0,0,.984-1.077,13.349,13.349,0,0,0,2.767-4.16.575.575,0,0,1,.334-.408.781.781,0,0,1,.427-.111c.148,0,.316.148.446.185.3.094.371.223.371.334a1.017,1.017,0,0,1-.111.539,15.429,15.429,0,0,0-1.356,4.2,9.7,9.7,0,0,0-.111,1.375c0,.464.334.836.334,1.244a.453.453,0,0,1-.111.334.493.493,0,0,1-.26.056,1.383,1.383,0,0,1-.706-.279c-.353-.223-.353-.074-.464-.353a2.915,2.915,0,0,1-.187-1.114c0-.465.057-1.078.057-1.263,0-.056-.019-.111-.074-.111-.074,0-.186.13-.261.223a7.009,7.009,0,0,1-2.08,1.8c-.149.074-.167.074-.241.074a2.848,2.848,0,0,1-1.114-.353c-.334-.205-.52-.39-.557-.576a4.817,4.817,0,0,1-.093-.8,8.2,8.2,0,0,1,.427-2.117c.149-.5.149-.687.316-1.17a17.576,17.576,0,0,1,1.3-3.492.89.89,0,0,1,.8-.483c.186,0,.539.093.632.3C1059.559,31.917,1059.707,32.047,1059.707,32.251Z" transform="translate(-849.315 -25.306)" fill="#b98757"/><path d="M1068.2,33.13a1.989,1.989,0,0,1-.111.631,2.56,2.56,0,0,0-.074.3c0,.056,0,.074.055.074.02,0,.093-.019.241-.148a9.832,9.832,0,0,1,2.582-1.523.936.936,0,0,1,.223-.037,1.751,1.751,0,0,1,1.355.52.482.482,0,0,1,.13.316.814.814,0,0,1-.649.816c-.278,0-.576-.185-.836-.185a.638.638,0,0,0-.3.074,7.991,7.991,0,0,0-4.68,5.33,1.459,1.459,0,0,1-.464.891.515.515,0,0,1-.334.166c-.3-.019-.427-.241-.557-.389a1.281,1.281,0,0,1-.353-.706c0-.631.78-1.245,1-1.95a37.053,37.053,0,0,0,1.282-4.289c.018-.168.037-.261.037-.3,0-.111-.148-.26-.168-.427,0-.149.3-.408.725-.408a.9.9,0,0,1,.612.2A1.861,1.861,0,0,1,1068.2,33.13Z" transform="translate(-850.626 -25.368)" fill="#b98757"/><path d="M1078.237,36.592c.261,0,.614.427.614.483,0,.074-.074.111-.074.186a.2.2,0,0,1-.149.223,9.715,9.715,0,0,0-2.042,1.412,5,5,0,0,1-2.748,1.373,2.463,2.463,0,0,1-1.875-.91,1.905,1.905,0,0,1-.224-.873,5.51,5.51,0,0,1,.3-1.393,3.725,3.725,0,0,1,.223-.724c.966-1.931,2.3-4.2,3.863-4.977a.5.5,0,0,1,.3-.056,2.964,2.964,0,0,1,1.931.78c.075.074.075.111.075.26a1.125,1.125,0,0,0,.037.279.421.421,0,0,1-.018.13,5.714,5.714,0,0,0-.631,1.746c0,.149-.111.279-.353.279a.57.57,0,0,1-.372-.13l-.482-.354a.487.487,0,0,1-.2-.408c0-.371.408-.818.408-1.115,0-.074-.055-.186-.149-.186-.11,0-.148.037-.3.186a14.686,14.686,0,0,0-2.266,2.99,8.135,8.135,0,0,0-1.077,2.841.347.347,0,0,0,.316.39,4.655,4.655,0,0,0,2.637-1.17A5.673,5.673,0,0,1,1078.237,36.592Z" transform="translate(-851.765 -25.282)" fill="#b98757"/><path d="M1082.593,40.233a1.78,1.78,0,0,1-.706-.131,12.352,12.352,0,0,1-1.188-.519,2.268,2.268,0,0,1-.927-1.282,5.544,5.544,0,0,1-.224-1.43,2.127,2.127,0,0,1,.093-.613,12.51,12.51,0,0,1,3.194-5.033,2.921,2.921,0,0,1,3.12-.631,1.157,1.157,0,0,1,.594,1.151,2.973,2.973,0,0,1-.427,1.338,3.62,3.62,0,0,1-.594.873,18.266,18.266,0,0,1-4.309,3.936c-.093.056-.111.093-.111.149a1.13,1.13,0,0,0,.446.78,1.155,1.155,0,0,0,.575.149,2.942,2.942,0,0,0,1.431-.521c1.281-.687,2.061-1.69,3.175-2.4a.6.6,0,0,1,.371-.13c.112,0,.371.186.371.371a2.032,2.032,0,0,1-.018.241.307.307,0,0,1-.092.26,14.78,14.78,0,0,1-4.105,3.25A1.046,1.046,0,0,1,1082.593,40.233Zm2.4-8.487c0-.149,0-.223-.111-.223a.743.743,0,0,0-.391.167,1.6,1.6,0,0,0-.37.241,9.191,9.191,0,0,0-2.916,4.253c0,.074.019.093.038.093a.242.242,0,0,0,.129-.056,17.9,17.9,0,0,0,2.841-2.859c.279-.334.205-.391.447-.762A1.487,1.487,0,0,0,1084.989,31.745Z" transform="translate(-852.984 -25.134)" fill="#b98757"/><path d="M1099.111,26.238c-.166.241-.223.482-.427.8a32.938,32.938,0,0,0-3.1,5.293l-.3.818c-1.115,3.119-1.411,4.475-1.411,5.143a4.362,4.362,0,0,0,.148,1.041c0,.056-.019.074-.074.13-.261.26-.2.39-.669.39-.168,0-.651-.241-.668-.353a6.889,6.889,0,0,1-.112-1.208,9.614,9.614,0,0,1,.483-2.748,12.034,12.034,0,0,1,.576-1.337c0-.019,0-.037-.037-.037s-.075.037-.187.167a21.6,21.6,0,0,1-4.754,4.643,1.1,1.1,0,0,1-.557.13,2.9,2.9,0,0,1-1.317-.576,2.045,2.045,0,0,1-.316-1.058,4.5,4.5,0,0,1,.649-1.988,11.918,11.918,0,0,1,3.919-4.179,2.777,2.777,0,0,1,1.337-.353,1.369,1.369,0,0,1,.52.093,7.15,7.15,0,0,1,.873.353c.093,0,.13,0,.149-.019,1.931-2.1,2.729-4.456,4.326-6.555a.44.44,0,0,1,.428-.223c.241,0,.91.3.91.613A1.63,1.63,0,0,1,1099.111,26.238Zm-6.462,5.812a.94.94,0,0,0-.465.094,9.64,9.64,0,0,0-4.326,4.921,1.092,1.092,0,0,0-.056.241c0,.187.036.427.13.427a.266.266,0,0,0,.186-.074c.111-.093.222-.093.389-.223a23.6,23.6,0,0,0,4.18-4.531c.222-.3.39-.352.39-.668C1093.076,32.125,1092.946,32.05,1092.649,32.05Z" transform="translate(-854.052 -24.232)" fill="#b98757"/><path d="M1110.927,26.793a2.812,2.812,0,0,1,1.8.614.913.913,0,0,1,.39.668c0,.223-.093.984-1.615,2.748a11.583,11.583,0,0,0-1.021,1.338c0,.037.037.056.074.073.353.167.835.074,1.188.205a2.667,2.667,0,0,1,1.411,1.244,1.171,1.171,0,0,1,.13.631c0,1.634-.873,2.729-1.857,4.308a3.377,3.377,0,0,1-2.99,1.412,5.228,5.228,0,0,1-1.95-.334,2.964,2.964,0,0,1-.928-.538.693.693,0,0,1-.278.036c-.409,0-.78-.389-1.1-.668a.235.235,0,0,1-.111-.223c0-.279-.76-.891-.779-1.077-.037-.371-.316-.446-.316-.836,0-.241.222-.316,1.04-.316.111,0,.279.074.353.074s.149,0,.2-.241a38.873,38.873,0,0,1,1.727-5.868.246.246,0,0,0-.056-.13.935.935,0,0,1-.167-.613c0-.186.019-.2.111-.241.538-.223.743-.65,1.021-1.449.26-.742.464-.873.688-.873.426,0,.835.484,1.3.484a.96.96,0,0,0,.446-.149A3.109,3.109,0,0,1,1110.927,26.793Zm-2.73,7.522a3.112,3.112,0,0,1-1.522.613c-.149,0-.167.037-.2.186a20.578,20.578,0,0,0-.576,2.6.371.371,0,0,0,.13.279,3.51,3.51,0,0,0,2.451,1.171c1.021,0,1.691-1.245,2.582-3.083a4.072,4.072,0,0,0,.464-1.968.768.768,0,0,0-.186-.594.9.9,0,0,0-.743-.224A5.38,5.38,0,0,0,1108.2,34.314Zm3.009-6.371a4.421,4.421,0,0,0-2.656.966.506.506,0,0,0-.223.26c-.111.279-.259.538-.353.817a26.984,26.984,0,0,0-1.133,3.417c0,.074.018.074.075.074a2.386,2.386,0,0,0,.984-.744c.129-.167.316-.427.426-.556.558-.651,1.411-1.486,2.005-2.3a5.611,5.611,0,0,0,.966-1.82C1111.3,27.981,1111.279,27.944,1111.205,27.944Z" transform="translate(-856.639 -24.565)" fill="#b98757"/><path d="M1119.158,40.233a1.774,1.774,0,0,1-.706-.131,12.242,12.242,0,0,1-1.188-.519,2.265,2.265,0,0,1-.929-1.282,5.591,5.591,0,0,1-.224-1.43,2.133,2.133,0,0,1,.094-.613,12.5,12.5,0,0,1,3.194-5.033,2.919,2.919,0,0,1,3.119-.631,1.157,1.157,0,0,1,.594,1.151,2.973,2.973,0,0,1-.427,1.338,3.569,3.569,0,0,1-.594.873,18.241,18.241,0,0,1-4.308,3.936c-.094.056-.111.093-.111.149a1.129,1.129,0,0,0,.446.78,1.156,1.156,0,0,0,.576.149,2.94,2.94,0,0,0,1.43-.521c1.282-.687,2.062-1.69,3.176-2.4a.6.6,0,0,1,.37-.13c.112,0,.372.186.372.371a1.921,1.921,0,0,1-.02.241.307.307,0,0,1-.092.26,14.785,14.785,0,0,1-4.1,3.25A1.048,1.048,0,0,1,1119.158,40.233Zm2.4-8.487c0-.149,0-.223-.111-.223a.739.739,0,0,0-.391.167,1.606,1.606,0,0,0-.371.241,9.2,9.2,0,0,0-2.916,4.253c0,.074.019.093.038.093a.246.246,0,0,0,.13-.056,17.933,17.933,0,0,0,2.841-2.859c.279-.334.2-.391.446-.762A1.483,1.483,0,0,0,1121.554,31.745Z" transform="translate(-858.688 -25.134)" fill="#b98757"/><path d="M1132.244,32.379a.626.626,0,0,1,.52.241.157.157,0,0,1,.037.111.387.387,0,0,1-.074.2,12.144,12.144,0,0,0-2.154,3.937,6.823,6.823,0,0,0-.26,1.653,2.512,2.512,0,0,0,.39,1.392.267.267,0,0,1,.037.112c0,.037-.074.223-.39.26a2.389,2.389,0,0,1-.353.074.948.948,0,0,1-.8-.371,3.83,3.83,0,0,1-.316-1.6,6.086,6.086,0,0,1,.074-.928c0-.074,0-.093-.074-.093s-.241.13-.447.334l-1,.928a5.418,5.418,0,0,1-2.21,1.393,1.146,1.146,0,0,1-.3.074c-.2,0-.427-.13-1.3-.836a1.363,1.363,0,0,1-.409-1.1,4.964,4.964,0,0,1,1.114-2.748,10.26,10.26,0,0,1,2.674-2.786,9.262,9.262,0,0,1,2.972-1.467,1.546,1.546,0,0,1,.408-.056,1.6,1.6,0,0,1,1.133.538,1.3,1.3,0,0,1,.279.371A.519.519,0,0,0,1132.244,32.379Zm-2.21.074a13.411,13.411,0,0,0-4.178,3.232,5.717,5.717,0,0,0-1.393,2.581c0,.224.074.5.409.5a1.946,1.946,0,0,0,.91-.52c1.728-1.615,3.676-2.859,4.624-4.624a3.256,3.256,0,0,1,.538-.706.416.416,0,0,0,.093-.279.4.4,0,0,0-.427-.371A1.711,1.711,0,0,0,1130.034,32.453Z" transform="translate(-859.797 -25.248)" fill="#b98757"/><path d="M1136.669,31.754c.148-.223.13-.26.3-.408a.97.97,0,0,1,.65-.186c.427,0,.668.111.743.279a1.128,1.128,0,0,1,.093.334,1.336,1.336,0,0,1-.409.873,8.609,8.609,0,0,0-1.188,1.672,28.942,28.942,0,0,0-1.319,2.9,12.317,12.317,0,0,0-.37,1.3c0,.073,0,.185.055.185.112,0,.187-.056.316-.241,2.507-3.565,3.882-4.308,4.29-5.181.335-.7.409-.761.651-.761.278,0,.37.167.668.186a.507.507,0,0,1,.371.5,1.448,1.448,0,0,1-.187.482,10.677,10.677,0,0,0-1.3,2.749,8.67,8.67,0,0,0-.222,1.671,3.468,3.468,0,0,0,.148.8c.057.334.521.576.65.668a.556.556,0,0,1,.279.428.48.48,0,0,1-.482.446,1.891,1.891,0,0,1-.966-.26,3.942,3.942,0,0,1-.724-.651,1.873,1.873,0,0,1-.316-1.151,4.514,4.514,0,0,1,.167-1.467c0-.037-.018-.074-.056-.074s-.056,0-.111.074c-.761,1-1.263,1.634-1.709,2.266a4.117,4.117,0,0,1-.8.817,1.065,1.065,0,0,1-.687.2,3.513,3.513,0,0,1-1.337-.854,1.041,1.041,0,0,1-.131-.538,4.93,4.93,0,0,1,.223-1.115,14.578,14.578,0,0,1,.91-2.525A20.1,20.1,0,0,1,1136.669,31.754Z" transform="translate(-861.437 -25.255)" fill="#b98757"/><path d="M1149.083,32.639a2.452,2.452,0,0,1-.539,1.542c-.148.186-.167.2-.259.2a1.259,1.259,0,0,1-.651-.241.707.707,0,0,1-.278-.6.3.3,0,0,1,.056-.148,1.671,1.671,0,0,0,.316-.855,1.184,1.184,0,0,0-.131-.5.549.549,0,0,0-.408-.26,3.778,3.778,0,0,0-1.133,1.913,2.986,2.986,0,0,0-.037.483c0,.111.093.947.13,1.188.167,1.393.595,3.472.595,4.234a.473.473,0,0,1-.149.334,1.692,1.692,0,0,1-1.17.668,1.523,1.523,0,0,1-.465-.074,5.8,5.8,0,0,1-2.71-2.489.766.766,0,0,1-.111-.279.734.734,0,0,1,.668-.687c.371,0,.538.037.705.26a10.366,10.366,0,0,0,1.207,1.783c.186.166.278.2.371.2a.171.171,0,0,0,.186-.149,2.841,2.841,0,0,0-.093-.576c-.261-1.225-.594-4.011-.594-4.383a5.053,5.053,0,0,1,.668-2.265,2.348,2.348,0,0,1,1.653-1.188,2.138,2.138,0,0,1,1.82.668A1.958,1.958,0,0,1,1149.083,32.639Z" transform="translate(-862.748 -25.193)" fill="#b98757"/></g></g></svg>